<svg width="1440" height="685" viewBox="0 0 1440 685" fill="none" xmlns="http://www.w3.org/2000/svg">
<path d="M605.5 186.5C555.1 177.3 433.5 190.333 379 198C115.048 247.639 17.9391 404.174 1.21308 479.588L0.5 685H1440.5V0.500004C1440.5 -3 1222 89.5 1220.5 91C1117 149 853 207.5 851.5 207.5C722 228.5 604 183.5 605.5 186.5Z" fill="#7C9BEC"/>
<path d="M568 246.5C270 224.5 65.5 397 0.5 486V685H506.5H1438.5C1439.17 463.333 1440.1 20.3 1438.5 21.5C1254 165.5 1050.5 209.5 1052 209.5C875.5 298.5 566.5 246.5 568 246.5Z" fill="#F4F851"/>
</svg>
