<svg width="493" height="323" viewBox="0 0 493 323" fill="none" xmlns="http://www.w3.org/2000/svg">
<path d="M340.012 0.192825H0.145126V218.034H340.012V0.192825Z" fill="#E6E6E6"/>
<path d="M330.293 27.5156H9.86353V205.147H330.293V27.5156Z" fill="white"/>
<path d="M339.866 0H0V14.4504H339.866V0Z" fill="#6C63FF"/>
<path d="M10.7297 10.0661C12.2077 10.0661 13.4059 8.867 13.4059 7.38783C13.4059 5.90865 12.2077 4.70955 10.7297 4.70955C9.25176 4.70955 8.05362 5.90865 8.05362 7.38783C8.05362 8.867 9.25176 10.0661 10.7297 10.0661Z" fill="white"/>
<path d="M20.8876 10.0661C22.3656 10.0661 23.5637 8.867 23.5637 7.38783C23.5637 5.90865 22.3656 4.70955 20.8876 4.70955C19.4096 4.70955 18.2115 5.90865 18.2115 7.38783C18.2115 8.867 19.4096 10.0661 20.8876 10.0661Z" fill="white"/>
<path d="M31.0455 10.0661C32.5234 10.0661 33.7216 8.867 33.7216 7.38783C33.7216 5.90865 32.5234 4.70955 31.0455 4.70955C29.5675 4.70955 28.3694 5.90865 28.3694 7.38783C28.3694 8.867 29.5675 10.0661 31.0455 10.0661Z" fill="white"/>
<path d="M218.465 54.7873H37.1258V156.873H218.465V54.7873Z" fill="#F4F851"/>
<path d="M312.825 54.7873H243.768V93.663H312.825V54.7873Z" fill="#E6E6E6"/>
<path d="M312.825 105.962H243.768V144.838H312.825V105.962Z" fill="#E6E6E6"/>
<path d="M312.825 157.137H243.768V196.013H312.825V157.137Z" fill="#E6E6E6"/>
<path d="M162.06 174.019H37.1258V182.461H162.06V174.019Z" fill="#E6E6E6"/>
<path d="M151.517 105.83L111.981 82.9856V128.675L151.517 105.83L111.981 82.9856V128.675L151.517 105.83Z" fill="white"/>
<path d="M406.015 300.644L407.64 308.771L399.519 310.397L400.737 300.237L406.015 300.644Z" fill="#FFB8B8"/>
<path d="M439.257 299.165L437.418 308.368L429.853 308.551L432.268 297.324L439.257 299.165Z" fill="#FFB8B8"/>
<path d="M451.316 204.619L453.425 218.863C453.425 218.863 451.316 250.518 450.789 252.101C450.262 253.683 448.68 261.597 448.68 261.597L439.719 299.582C439.719 299.582 431.961 300.638 430.379 296.417L430.757 273.731L430.23 247.88L423.904 218.336L412.834 258.431C412.834 258.431 412.307 271.621 410.725 276.369C409.144 281.117 407.035 301.693 407.035 301.693C407.035 301.693 400.332 303.275 399.805 301.693C399.278 300.11 396.492 262.652 396.492 256.849C396.492 251.045 393.394 195.401 393.394 195.401L451.316 204.619Z" fill="#2F2E41"/>
<path d="M432.282 307.843C433.151 308.022 434.047 308.022 434.916 307.843C435.903 307.514 434.916 305.537 434.916 305.537H438.537C438.537 305.537 442.488 314.433 444.134 315.092C445.78 315.751 451.048 323 444.792 323C440.933 322.95 437.166 321.808 433.928 319.705C433.928 319.705 433.27 316.74 430.307 316.41C427.343 316.081 425.368 312.456 425.368 312.456L428.584 306.514C428.676 306.347 428.81 306.207 428.975 306.109C429.139 306.011 429.326 305.96 429.517 305.959C429.708 305.959 429.895 306.01 430.06 306.107C430.224 306.204 430.359 306.343 430.452 306.511C430.899 307.301 431.52 307.996 432.282 307.843Z" fill="#2F2E41"/>
<path d="M404.728 306.823C404.728 306.823 403.993 308.293 403.259 307.558C402.645 306.777 402.15 305.911 401.79 304.985C401.79 304.985 399.587 303.883 399.22 304.985C398.853 306.088 397.384 311.967 396.65 312.702C395.916 313.437 388.205 321.154 395.916 322.623C403.626 324.093 405.095 320.786 405.095 320.786C405.095 320.786 403.993 318.949 406.196 318.214C408.399 317.479 408.766 314.907 408.766 314.907L407.66 306.602C407.636 306.425 407.559 306.259 407.441 306.125C407.322 305.992 407.167 305.897 406.994 305.852C406.821 305.807 406.639 305.815 406.47 305.875C406.302 305.934 406.155 306.042 406.048 306.185C405.623 306.741 405.148 307.103 404.728 306.823Z" fill="#2F2E41"/>
<path d="M463.44 167.688L465.022 195.122C465.022 195.122 472.402 212.532 462.386 212.005C452.37 211.477 458.696 194.595 458.696 194.595L448.89 170.11L463.44 167.688Z" fill="#FFB8B8"/>
<path d="M382.259 159.775L380.678 187.209C380.678 187.209 373.298 204.619 383.314 204.091C393.33 203.564 387.004 186.681 387.004 186.681L396.81 162.197L382.259 159.775Z" fill="#FFB8B8"/>
<path d="M424.431 100.159C432.001 100.159 438.137 94.0175 438.137 86.4418C438.137 78.8662 432.001 72.7249 424.431 72.7249C416.862 72.7249 410.726 78.8662 410.726 86.4418C410.726 94.0175 416.862 100.159 424.431 100.159Z" fill="#FFB8B8"/>
<path d="M435.238 91.9814C435.238 91.9814 431.548 106.753 438.928 110.446C446.308 114.14 415.733 119.415 413.625 110.446L414.679 106.226C414.679 106.226 418.896 100.95 417.842 96.202L435.238 91.9814Z" fill="#FFB8B8"/>
<path d="M427.067 110.71C427.067 110.71 417.971 111.56 415.139 105.596C415.139 105.596 393.857 107.017 389.112 126.538C394.618 126.695 401.449 189.4 392.425 195.65C385.1 200.723 405.065 208.537 432.866 208.839L453.952 207.784C450.02 204.394 440.612 160.278 446.572 160.83C446.572 160.83 462.386 136.034 460.805 132.341C459.223 128.648 456.691 114.086 436.344 108.178C436.344 108.178 436.029 111.238 427.067 110.71Z" fill="#E6E6E6"/>
<path d="M453.952 123.372L460.805 132.341C460.805 132.341 467.658 169.799 465.549 170.326C463.441 170.854 450.789 175.074 448.68 173.492C446.572 171.909 437.083 140.782 437.083 140.782L453.952 123.372Z" fill="#E6E6E6"/>
<path d="M398.074 120.734L389.112 126.538C389.112 126.538 375.934 163.468 379.624 165.051C383.314 166.633 403.873 165.578 403.873 165.578L398.074 120.734Z" fill="#E6E6E6"/>
<path d="M439.413 74.1662C439.413 74.1662 434.665 63.872 425.566 66.2476C416.467 68.6232 411.324 72.1865 410.929 75.7499C410.533 79.3133 411.127 84.6584 411.127 84.6584C411.127 84.6584 412.116 77.3336 418.445 78.9173C424.775 80.5011 434.665 79.3133 434.665 79.3133L436.248 93.5668C436.248 93.5668 438.028 90.9932 440.006 92.577C441.984 94.1607 445.743 77.3336 439.413 74.1662Z" fill="#2F2E41"/>
<path d="M492.799 322.709H356.932V321.597H493L492.799 322.709Z" fill="#3F3D56"/>
</svg>
